<?xml version="1.0" encoding="UTF-8"?>
<svg xmlns="http://www.w3.org/2000/svg" xmlns:xlink="http://www.w3.org/1999/xlink" width="15px" height="15px" viewBox="0 0 15 15" version="1.1">
<g id="surface1">
<path style=" stroke:none;fill-rule:nonzero;fill:rgb(0%,0%,0%);fill-opacity:1;" d="M 10.976562 2.539062 C 11.339844 2.171875 11.339844 1.578125 10.976562 1.210938 C 10.609375 0.84375 10.015625 0.84375 9.648438 1.210938 L 5.625 5.234375 L 3.945312 3.554688 C 3.578125 3.1875 2.984375 3.1875 2.617188 3.554688 C 2.25 3.917969 2.25 4.515625 2.617188 4.878906 L 4.960938 7.222656 C 5.328125 7.589844 5.921875 7.589844 6.289062 7.222656 L 10.976562 2.535156 Z M 13.789062 6.289062 C 14.152344 5.921875 14.152344 5.328125 13.789062 4.960938 C 13.421875 4.59375 12.828125 4.59375 12.460938 4.960938 L 5.625 11.796875 L 2.539062 8.710938 C 2.171875 8.347656 1.578125 8.347656 1.210938 8.710938 C 0.84375 9.078125 0.84375 9.671875 1.210938 10.039062 L 4.960938 13.789062 C 5.328125 14.15625 5.921875 14.15625 6.289062 13.789062 Z M 13.789062 6.289062 "/>
</g>
</svg>
