<?xml version="1.0" encoding="UTF-8"?>
<svg xmlns="http://www.w3.org/2000/svg" xmlns:xlink="http://www.w3.org/1999/xlink" width="15px" height="15px" viewBox="0 0 15 15" version="1.1">
<g id="surface1">
<path style=" stroke:none;fill-rule:nonzero;fill:rgb(0%,0%,0%);fill-opacity:1;" d="M 11.71875 3.75 C 11.71875 5.050781 10.976562 6.195312 9.84375 6.867188 L 9.84375 7.5 C 9.84375 8.019531 9.425781 8.4375 8.90625 8.4375 L 6.09375 8.4375 C 5.574219 8.4375 5.15625 8.019531 5.15625 7.5 L 5.15625 6.867188 C 4.023438 6.195312 3.28125 5.046875 3.28125 3.75 C 3.28125 1.679688 5.171875 0 7.5 0 C 9.828125 0 11.71875 1.679688 11.71875 3.75 Z M 5.859375 5.15625 C 6.378906 5.15625 6.796875 4.738281 6.796875 4.21875 C 6.796875 3.699219 6.378906 3.28125 5.859375 3.28125 C 5.339844 3.28125 4.921875 3.699219 4.921875 4.21875 C 4.921875 4.738281 5.339844 5.15625 5.859375 5.15625 Z M 10.078125 4.21875 C 10.078125 3.699219 9.660156 3.28125 9.140625 3.28125 C 8.621094 3.28125 8.203125 3.699219 8.203125 4.21875 C 8.203125 4.738281 8.621094 5.15625 9.140625 5.15625 C 9.660156 5.15625 10.078125 4.738281 10.078125 4.21875 Z M 1.039062 8.019531 C 1.269531 7.554688 1.832031 7.367188 2.292969 7.597656 L 7.5 10.203125 L 12.707031 7.597656 C 13.167969 7.367188 13.730469 7.554688 13.960938 8.019531 C 14.195312 8.480469 14.007812 9.042969 13.542969 9.273438 L 9.597656 11.25 L 13.546875 13.226562 C 14.011719 13.457031 14.195312 14.019531 13.964844 14.480469 C 13.734375 14.945312 13.171875 15.132812 12.710938 14.898438 L 7.5 12.296875 L 2.292969 14.898438 C 1.832031 15.132812 1.269531 14.945312 1.039062 14.480469 C 0.804688 14.019531 0.992188 13.457031 1.457031 13.226562 L 5.402344 11.25 L 1.457031 9.273438 C 0.992188 9.042969 0.804688 8.480469 1.039062 8.019531 Z M 1.039062 8.019531 "/>
</g>
</svg>
